<svg width="120" height="32" viewBox="0 0 120 32" fill="none" xmlns="http://www.w3.org/2000/svg">
<path d="M48.0703 10.436V23H45.5503V17.654H40.1683V23H37.6483V10.436H40.1683V15.602H45.5503V10.436H48.0703ZM54.9786 23.162C54.0186 23.162 53.1546 22.952 52.3866 22.532C51.6186 22.1 51.0126 21.494 50.5686 20.714C50.1366 19.934 49.9206 19.034 49.9206 18.014C49.9206 16.994 50.1426 16.094 50.5866 15.314C51.0426 14.534 51.6606 13.934 52.4406 13.514C53.2206 13.082 54.0906 12.866 55.0506 12.866C56.0106 12.866 56.8806 13.082 57.6606 13.514C58.4406 13.934 59.0526 14.534 59.4966 15.314C59.9526 16.094 60.1806 16.994 60.1806 18.014C60.1806 19.034 59.9466 19.934 59.4786 20.714C59.0226 21.494 58.3986 22.1 57.6066 22.532C56.8266 22.952 55.9506 23.162 54.9786 23.162ZM54.9786 20.966C55.4346 20.966 55.8606 20.858 56.2566 20.642C56.6646 20.414 56.9886 20.078 57.2286 19.634C57.4686 19.19 57.5886 18.65 57.5886 18.014C57.5886 17.066 57.3366 16.34 56.8326 15.836C56.3406 15.32 55.7346 15.062 55.0146 15.062C54.2946 15.062 53.6886 15.32 53.1966 15.836C52.7166 16.34 52.4766 17.066 52.4766 18.014C52.4766 18.962 52.7106 19.694 53.1786 20.21C53.6586 20.714 54.2586 20.966 54.9786 20.966ZM66.4571 23.162C65.4971 23.162 64.6331 22.952 63.8651 22.532C63.0971 22.1 62.4911 21.494 62.0471 20.714C61.6151 19.934 61.3991 19.034 61.3991 18.014C61.3991 16.994 61.6211 16.094 62.0651 15.314C62.5211 14.534 63.1391 13.934 63.9191 13.514C64.6991 13.082 65.5691 12.866 66.5291 12.866C67.4891 12.866 68.3591 13.082 69.1391 13.514C69.9191 13.934 70.5311 14.534 70.9751 15.314C71.4311 16.094 71.6591 16.994 71.6591 18.014C71.6591 19.034 71.4251 19.934 70.9571 20.714C70.5011 21.494 69.8771 22.1 69.0851 22.532C68.3051 22.952 67.4291 23.162 66.4571 23.162ZM66.4571 20.966C66.9131 20.966 67.3391 20.858 67.7351 20.642C68.1431 20.414 68.4671 20.078 68.7071 19.634C68.9471 19.19 69.0671 18.65 69.0671 18.014C69.0671 17.066 68.8151 16.34 68.3111 15.836C67.8191 15.32 67.2131 15.062 66.4931 15.062C65.7731 15.062 65.1671 15.32 64.6751 15.836C64.1951 16.34 63.9551 17.066 63.9551 18.014C63.9551 18.962 64.1891 19.694 64.6571 20.21C65.1371 20.714 65.7371 20.966 66.4571 20.966Z" fill="white"/>
<path d="M80.6356 16.556C81.3436 16.688 81.9256 17.042 82.3816 17.618C82.8376 18.194 83.0656 18.854 83.0656 19.598C83.0656 20.27 82.8976 20.864 82.5616 21.38C82.2376 21.884 81.7636 22.28 81.1396 22.568C80.5156 22.856 79.7776 23 78.9256 23H73.5076V10.436H78.6916C79.5436 10.436 80.2756 10.574 80.8876 10.85C81.5116 11.126 81.9796 11.51 82.2916 12.002C82.6156 12.494 82.7776 13.052 82.7776 13.676C82.7776 14.408 82.5796 15.02 82.1836 15.512C81.7996 16.004 81.2836 16.352 80.6356 16.556ZM76.0276 15.62H78.3316C78.9316 15.62 79.3936 15.488 79.7176 15.224C80.0416 14.948 80.2036 14.558 80.2036 14.054C80.2036 13.55 80.0416 13.16 79.7176 12.884C79.3936 12.608 78.9316 12.47 78.3316 12.47H76.0276V15.62ZM78.5656 20.948C79.1776 20.948 79.6516 20.804 79.9876 20.516C80.3356 20.228 80.5096 19.82 80.5096 19.292C80.5096 18.752 80.3296 18.332 79.9696 18.032C79.6096 17.72 79.1236 17.564 78.5116 17.564H76.0276V20.948H78.5656ZM84.426 17.978C84.426 16.97 84.624 16.076 85.02 15.296C85.428 14.516 85.974 13.916 86.658 13.496C87.354 13.076 88.128 12.866 88.98 12.866C89.724 12.866 90.372 13.016 90.924 13.316C91.488 13.616 91.938 13.994 92.274 14.45V13.028H94.812V23H92.274V21.542C91.95 22.01 91.5 22.4 90.924 22.712C90.36 23.012 89.706 23.162 88.962 23.162C88.122 23.162 87.354 22.946 86.658 22.514C85.974 22.082 85.428 21.476 85.02 20.696C84.624 19.904 84.426 18.998 84.426 17.978ZM92.274 18.014C92.274 17.402 92.154 16.88 91.914 16.448C91.674 16.004 91.35 15.668 90.942 15.44C90.534 15.2 90.096 15.08 89.628 15.08C89.16 15.08 88.728 15.194 88.332 15.422C87.936 15.65 87.612 15.986 87.36 16.43C87.12 16.862 87 17.378 87 17.978C87 18.578 87.12 19.106 87.36 19.562C87.612 20.006 87.936 20.348 88.332 20.588C88.74 20.828 89.172 20.948 89.628 20.948C90.096 20.948 90.534 20.834 90.942 20.606C91.35 20.366 91.674 20.03 91.914 19.598C92.154 19.154 92.274 18.626 92.274 18.014ZM102.799 12.884C103.987 12.884 104.947 13.262 105.679 14.018C106.411 14.762 106.777 15.806 106.777 17.15V23H104.257V17.492C104.257 16.7 104.059 16.094 103.663 15.674C103.267 15.242 102.727 15.026 102.043 15.026C101.347 15.026 100.795 15.242 100.387 15.674C99.9913 16.094 99.7933 16.7 99.7933 17.492V23H97.2733V13.028H99.7933V14.27C100.129 13.838 100.555 13.502 101.071 13.262C101.599 13.01 102.175 12.884 102.799 12.884ZM115.078 23L111.694 18.752V23H109.174V9.68H111.694V17.258L115.042 13.028H118.318L113.926 18.032L118.354 23H115.078Z" fill="#5CE1E6"/>
<path d="M16.4062 0C13.2417 -3.77363e-08 10.1483 0.938383 7.51713 2.69649C4.88594 4.45459 2.83518 6.95345 1.62418 9.87706C0.413176 12.8007 0.096322 16.0177 0.713685 19.1214C1.33105 22.2251 2.8549 25.0761 5.09254 27.3137C7.33018 29.5513 10.1811 31.0752 13.2848 31.6926C16.3885 32.3099 19.6056 31.9931 22.5292 30.7821C25.4528 29.5711 27.9517 27.5203 29.7098 24.8891C31.4679 22.2579 32.4062 19.1645 32.4062 16L24.4062 16C24.4062 17.5823 23.9371 19.129 23.058 20.4446C22.179 21.7602 20.9295 22.7855 19.4677 23.391C18.0059 23.9965 16.3974 24.155 14.8455 23.8463C13.2937 23.5376 11.8682 22.7757 10.7494 21.6569C9.63057 20.538 8.86865 19.1126 8.55997 17.5607C8.25129 16.0089 8.40971 14.4003 9.01521 12.9385C9.62072 11.4767 10.6461 10.2273 11.9617 9.34824C13.2773 8.46919 14.824 8 16.4062 8V0Z" fill="white"/>
<path d="M16.4062 0C14.3051 -2.5056e-08 12.2245 0.413852 10.2833 1.21793C8.3421 2.022 6.57828 3.20055 5.09254 4.68629C3.6068 6.17203 2.42825 7.93586 1.62418 9.87707C0.820102 11.8183 0.40625 13.8989 0.40625 16H8.40625C8.40625 14.9494 8.61318 13.9091 9.01521 12.9385C9.41725 11.9679 10.0065 11.086 10.7494 10.3431C11.4923 9.60028 12.3742 9.011 13.3448 8.60896C14.3154 8.20693 15.3557 8 16.4062 8V0Z" fill="#5CE1E6"/>
<circle cx="16.4062" cy="16" r="5" fill="#5CE1E6"/>
<path d="M21.4062 16C21.4062 15.3434 21.2769 14.6932 21.0256 14.0866C20.7744 13.48 20.4061 12.9288 19.9418 12.4645C19.4775 12.0002 18.9263 11.6319 18.3197 11.3806C17.713 11.1293 17.0629 11 16.4062 11C15.7496 11 15.0995 11.1293 14.4928 11.3806C13.8862 11.6319 13.335 12.0002 12.8707 12.4645C12.4064 12.9288 12.0381 13.48 11.7869 14.0866C11.5356 14.6932 11.4062 15.3434 11.4063 16L16.4062 16H21.4062Z" fill="white"/>
</svg>
