<svg width="388" height="32" viewBox="0 0 388 32" fill="none" xmlns="http://www.w3.org/2000/svg">
<path d="M45.918 20.686C47.442 19.462 48.636 18.46 49.5 17.68C50.364 16.888 51.09 16.066 51.678 15.214C52.278 14.35 52.578 13.504 52.578 12.676C52.578 11.896 52.386 11.284 52.002 10.84C51.63 10.384 51.024 10.156 50.184 10.156C49.368 10.156 48.732 10.414 48.276 10.93C47.832 11.434 47.592 12.112 47.556 12.964H45.972C46.02 11.62 46.428 10.582 47.196 9.85C47.964 9.118 48.954 8.752 50.166 8.752C51.402 8.752 52.38 9.094 53.1 9.778C53.832 10.462 54.198 11.404 54.198 12.604C54.198 13.6 53.898 14.572 53.298 15.52C52.71 16.456 52.038 17.284 51.282 18.004C50.526 18.712 49.56 19.54 48.384 20.488H54.576V21.856H45.918V20.686ZM56.4695 15.358C56.4695 13.294 56.8055 11.686 57.4775 10.534C58.1495 9.37 59.3255 8.788 61.0055 8.788C62.6735 8.788 63.8435 9.37 64.5155 10.534C65.1875 11.686 65.5235 13.294 65.5235 15.358C65.5235 17.458 65.1875 19.09 64.5155 20.254C63.8435 21.418 62.6735 22 61.0055 22C59.3255 22 58.1495 21.418 57.4775 20.254C56.8055 19.09 56.4695 17.458 56.4695 15.358ZM63.9035 15.358C63.9035 14.314 63.8315 13.432 63.6875 12.712C63.5555 11.98 63.2735 11.392 62.8415 10.948C62.4215 10.504 61.8095 10.282 61.0055 10.282C60.1895 10.282 59.5655 10.504 59.1335 10.948C58.7135 11.392 58.4315 11.98 58.2875 12.712C58.1555 13.432 58.0895 14.314 58.0895 15.358C58.0895 16.438 58.1555 17.344 58.2875 18.076C58.4315 18.808 58.7135 19.396 59.1335 19.84C59.5655 20.284 60.1895 20.506 61.0055 20.506C61.8095 20.506 62.4215 20.284 62.8415 19.84C63.2735 19.396 63.5555 18.808 63.6875 18.076C63.8315 17.344 63.9035 16.438 63.9035 15.358ZM67.4123 11.92C67.4123 11.104 67.6583 10.456 68.1503 9.976C68.6423 9.484 69.2723 9.238 70.0403 9.238C70.8083 9.238 71.4383 9.484 71.9303 9.976C72.4223 10.456 72.6683 11.104 72.6683 11.92C72.6683 12.748 72.4223 13.408 71.9303 13.9C71.4383 14.38 70.8083 14.62 70.0403 14.62C69.2723 14.62 68.6423 14.38 68.1503 13.9C67.6583 13.408 67.4123 12.748 67.4123 11.92ZM77.9243 9.436L70.6343 22H69.0143L76.3043 9.436H77.9243ZM70.0403 10.246C69.6323 10.246 69.3083 10.39 69.0683 10.678C68.8403 10.954 68.7263 11.368 68.7263 11.92C68.7263 12.472 68.8403 12.892 69.0683 13.18C69.3083 13.468 69.6323 13.612 70.0403 13.612C70.4483 13.612 70.7723 13.468 71.0123 13.18C71.2523 12.88 71.3723 12.46 71.3723 11.92C71.3723 11.368 71.2523 10.954 71.0123 10.678C70.7723 10.39 70.4483 10.246 70.0403 10.246ZM74.3063 19.516C74.3063 18.688 74.5523 18.034 75.0443 17.554C75.5363 17.062 76.1663 16.816 76.9343 16.816C77.7023 16.816 78.3263 17.062 78.8063 17.554C79.2983 18.034 79.5443 18.688 79.5443 19.516C79.5443 20.332 79.2983 20.986 78.8063 21.478C78.3263 21.97 77.7023 22.216 76.9343 22.216C76.1663 22.216 75.5363 21.976 75.0443 21.496C74.5523 21.004 74.3063 20.344 74.3063 19.516ZM76.9163 17.842C76.5083 17.842 76.1843 17.986 75.9443 18.274C75.7043 18.55 75.5843 18.964 75.5843 19.516C75.5843 20.056 75.7043 20.47 75.9443 20.758C76.1843 21.034 76.5083 21.172 76.9163 21.172C77.3243 21.172 77.6483 21.034 77.8883 20.758C78.1283 20.47 78.2483 20.056 78.2483 19.516C78.2483 18.964 78.1283 18.55 77.8883 18.274C77.6483 17.986 77.3243 17.842 76.9163 17.842ZM219.883 10.48V8.986H223.267V22H221.611V10.48H219.883ZM243.876 9.544V22H242.238V12.712L238.098 22H236.946L232.788 12.694V22H231.15V9.544H232.914L237.522 19.84L242.13 9.544H243.876ZM252.342 22.126C251.178 22.126 250.116 21.856 249.156 21.316C248.196 20.764 247.434 20.002 246.87 19.03C246.318 18.046 246.042 16.942 246.042 15.718C246.042 14.494 246.318 13.396 246.87 12.424C247.434 11.44 248.196 10.678 249.156 10.138C250.116 9.586 251.178 9.31 252.342 9.31C253.518 9.31 254.586 9.586 255.546 10.138C256.506 10.678 257.262 11.434 257.814 12.406C258.366 13.378 258.642 14.482 258.642 15.718C258.642 16.954 258.366 18.058 257.814 19.03C257.262 20.002 256.506 20.764 255.546 21.316C254.586 21.856 253.518 22.126 252.342 22.126ZM252.342 20.704C253.218 20.704 254.004 20.5 254.7 20.092C255.408 19.684 255.96 19.102 256.356 18.346C256.764 17.59 256.968 16.714 256.968 15.718C256.968 14.71 256.764 13.834 256.356 13.09C255.96 12.334 255.414 11.752 254.718 11.344C254.022 10.936 253.23 10.732 252.342 10.732C251.454 10.732 250.662 10.936 249.966 11.344C249.27 11.752 248.718 12.334 248.31 13.09C247.914 13.834 247.716 14.71 247.716 15.718C247.716 16.714 247.914 17.59 248.31 18.346C248.718 19.102 249.27 19.684 249.966 20.092C250.674 20.5 251.466 20.704 252.342 20.704ZM270.668 22H269.03L262.442 12.01V22H260.804V9.436H262.442L269.03 19.408V9.436H270.668V22ZM281.182 9.454V10.786H277.762V22H276.124V10.786H272.686V9.454H281.182ZM292.865 9.454V22H291.227V16.312H284.837V22H283.199V9.454H284.837V14.962H291.227V9.454H292.865Z" fill="white"/>
<path d="M90.4053 9.454C91.7733 9.454 92.9553 9.712 93.9513 10.228C94.9593 10.732 95.7273 11.458 96.2553 12.406C96.7953 13.354 97.0653 14.47 97.0653 15.754C97.0653 17.038 96.7953 18.154 96.2553 19.102C95.7273 20.038 94.9593 20.758 93.9513 21.262C92.9553 21.754 91.7733 22 90.4053 22H86.4993V9.454H90.4053ZM90.4053 20.65C92.0253 20.65 93.2613 20.224 94.1133 19.372C94.9653 18.508 95.3913 17.302 95.3913 15.754C95.3913 14.194 94.9593 12.976 94.0953 12.1C93.2433 11.224 92.0133 10.786 90.4053 10.786H88.1373V20.65H90.4053ZM100.864 9.454V22H99.2258V9.454H100.864ZM107.634 22.126C106.806 22.126 106.062 21.982 105.402 21.694C104.754 21.394 104.244 20.986 103.872 20.47C103.5 19.942 103.308 19.336 103.296 18.652H105.042C105.102 19.24 105.342 19.738 105.762 20.146C106.194 20.542 106.818 20.74 107.634 20.74C108.414 20.74 109.026 20.548 109.47 20.164C109.926 19.768 110.154 19.264 110.154 18.652C110.154 18.172 110.022 17.782 109.758 17.482C109.494 17.182 109.164 16.954 108.768 16.798C108.372 16.642 107.838 16.474 107.166 16.294C106.338 16.078 105.672 15.862 105.168 15.646C104.676 15.43 104.25 15.094 103.89 14.638C103.542 14.17 103.368 13.546 103.368 12.766C103.368 12.082 103.542 11.476 103.89 10.948C104.238 10.42 104.724 10.012 105.348 9.724C105.984 9.436 106.71 9.292 107.526 9.292C108.702 9.292 109.662 9.586 110.406 10.174C111.162 10.762 111.588 11.542 111.684 12.514H109.884C109.824 12.034 109.572 11.614 109.128 11.254C108.684 10.882 108.096 10.696 107.364 10.696C106.68 10.696 106.122 10.876 105.69 11.236C105.258 11.584 105.042 12.076 105.042 12.712C105.042 13.168 105.168 13.54 105.42 13.828C105.684 14.116 106.002 14.338 106.374 14.494C106.758 14.638 107.292 14.806 107.976 14.998C108.804 15.226 109.47 15.454 109.974 15.682C110.478 15.898 110.91 16.24 111.27 16.708C111.63 17.164 111.81 17.788 111.81 18.58C111.81 19.192 111.648 19.768 111.324 20.308C111 20.848 110.52 21.286 109.884 21.622C109.248 21.958 108.498 22.126 107.634 22.126ZM113.608 15.718C113.608 14.494 113.884 13.396 114.436 12.424C114.988 11.44 115.738 10.672 116.686 10.12C117.646 9.568 118.708 9.292 119.872 9.292C121.24 9.292 122.434 9.622 123.454 10.282C124.474 10.942 125.218 11.878 125.686 13.09H123.724C123.376 12.334 122.872 11.752 122.212 11.344C121.564 10.936 120.784 10.732 119.872 10.732C118.996 10.732 118.21 10.936 117.514 11.344C116.818 11.752 116.272 12.334 115.876 13.09C115.48 13.834 115.282 14.71 115.282 15.718C115.282 16.714 115.48 17.59 115.876 18.346C116.272 19.09 116.818 19.666 117.514 20.074C118.21 20.482 118.996 20.686 119.872 20.686C120.784 20.686 121.564 20.488 122.212 20.092C122.872 19.684 123.376 19.102 123.724 18.346H125.686C125.218 19.546 124.474 20.476 123.454 21.136C122.434 21.784 121.24 22.108 119.872 22.108C118.708 22.108 117.646 21.838 116.686 21.298C115.738 20.746 114.988 19.984 114.436 19.012C113.884 18.04 113.608 16.942 113.608 15.718ZM133.812 22.126C132.648 22.126 131.586 21.856 130.626 21.316C129.666 20.764 128.904 20.002 128.34 19.03C127.788 18.046 127.512 16.942 127.512 15.718C127.512 14.494 127.788 13.396 128.34 12.424C128.904 11.44 129.666 10.678 130.626 10.138C131.586 9.586 132.648 9.31 133.812 9.31C134.988 9.31 136.056 9.586 137.016 10.138C137.976 10.678 138.732 11.434 139.284 12.406C139.836 13.378 140.112 14.482 140.112 15.718C140.112 16.954 139.836 18.058 139.284 19.03C138.732 20.002 137.976 20.764 137.016 21.316C136.056 21.856 134.988 22.126 133.812 22.126ZM133.812 20.704C134.688 20.704 135.474 20.5 136.17 20.092C136.878 19.684 137.43 19.102 137.826 18.346C138.234 17.59 138.438 16.714 138.438 15.718C138.438 14.71 138.234 13.834 137.826 13.09C137.43 12.334 136.884 11.752 136.188 11.344C135.492 10.936 134.7 10.732 133.812 10.732C132.924 10.732 132.132 10.936 131.436 11.344C130.74 11.752 130.188 12.334 129.78 13.09C129.384 13.834 129.186 14.71 129.186 15.718C129.186 16.714 129.384 17.59 129.78 18.346C130.188 19.102 130.74 19.684 131.436 20.092C132.144 20.5 132.936 20.704 133.812 20.704ZM143.877 9.454V17.392C143.877 18.508 144.147 19.336 144.687 19.876C145.239 20.416 146.001 20.686 146.973 20.686C147.933 20.686 148.683 20.416 149.223 19.876C149.775 19.336 150.051 18.508 150.051 17.392V9.454H151.689V17.374C151.689 18.418 151.479 19.3 151.059 20.02C150.639 20.728 150.069 21.256 149.349 21.604C148.641 21.952 147.843 22.126 146.955 22.126C146.067 22.126 145.263 21.952 144.543 21.604C143.835 21.256 143.271 20.728 142.851 20.02C142.443 19.3 142.239 18.418 142.239 17.374V9.454H143.877ZM164.285 22H162.647L156.059 12.01V22H154.421V9.436H156.059L162.647 19.408V9.436H164.285V22ZM174.799 9.454V10.786H171.379V22H169.741V10.786H166.303V9.454H174.799ZM188.707 9.454V10.786H183.253V15.016H187.681V16.348H183.253V22H181.615V9.454H188.707ZM196.373 22.126C195.209 22.126 194.147 21.856 193.187 21.316C192.227 20.764 191.465 20.002 190.901 19.03C190.349 18.046 190.073 16.942 190.073 15.718C190.073 14.494 190.349 13.396 190.901 12.424C191.465 11.44 192.227 10.678 193.187 10.138C194.147 9.586 195.209 9.31 196.373 9.31C197.549 9.31 198.617 9.586 199.577 10.138C200.537 10.678 201.293 11.434 201.845 12.406C202.397 13.378 202.673 14.482 202.673 15.718C202.673 16.954 202.397 18.058 201.845 19.03C201.293 20.002 200.537 20.764 199.577 21.316C198.617 21.856 197.549 22.126 196.373 22.126ZM196.373 20.704C197.249 20.704 198.035 20.5 198.731 20.092C199.439 19.684 199.991 19.102 200.387 18.346C200.795 17.59 200.999 16.714 200.999 15.718C200.999 14.71 200.795 13.834 200.387 13.09C199.991 12.334 199.445 11.752 198.749 11.344C198.053 10.936 197.261 10.732 196.373 10.732C195.485 10.732 194.693 10.936 193.997 11.344C193.301 11.752 192.749 12.334 192.341 13.09C191.945 13.834 191.747 14.71 191.747 15.718C191.747 16.714 191.945 17.59 192.341 18.346C192.749 19.102 193.301 19.684 193.997 20.092C194.705 20.5 195.497 20.704 196.373 20.704ZM211.441 22L208.453 16.87H206.473V22H204.835V9.454H208.885C209.833 9.454 210.631 9.616 211.279 9.94C211.939 10.264 212.431 10.702 212.755 11.254C213.079 11.806 213.241 12.436 213.241 13.144C213.241 14.008 212.989 14.77 212.485 15.43C211.993 16.09 211.249 16.528 210.253 16.744L213.403 22H211.441ZM206.473 15.556H208.885C209.773 15.556 210.439 15.34 210.883 14.908C211.327 14.464 211.549 13.876 211.549 13.144C211.549 12.4 211.327 11.824 210.883 11.416C210.451 11.008 209.785 10.804 208.885 10.804H206.473V15.556ZM307.876 19.21H302.404L301.396 22H299.668L304.204 9.526H306.094L310.612 22H308.884L307.876 19.21ZM307.408 17.878L305.14 11.542L302.872 17.878H307.408ZM311.977 15.718C311.977 14.494 312.253 13.396 312.805 12.424C313.357 11.44 314.107 10.672 315.055 10.12C316.015 9.568 317.077 9.292 318.241 9.292C319.609 9.292 320.803 9.622 321.823 10.282C322.843 10.942 323.587 11.878 324.055 13.09H322.093C321.745 12.334 321.241 11.752 320.581 11.344C319.933 10.936 319.153 10.732 318.241 10.732C317.365 10.732 316.579 10.936 315.883 11.344C315.187 11.752 314.641 12.334 314.245 13.09C313.849 13.834 313.651 14.71 313.651 15.718C313.651 16.714 313.849 17.59 314.245 18.346C314.641 19.09 315.187 19.666 315.883 20.074C316.579 20.482 317.365 20.686 318.241 20.686C319.153 20.686 319.933 20.488 320.581 20.092C321.241 19.684 321.745 19.102 322.093 18.346H324.055C323.587 19.546 322.843 20.476 321.823 21.136C320.803 21.784 319.609 22.108 318.241 22.108C317.077 22.108 316.015 21.838 315.055 21.298C314.107 20.746 313.357 19.984 312.805 19.012C312.253 18.04 311.977 16.942 311.977 15.718ZM325.881 15.718C325.881 14.494 326.157 13.396 326.709 12.424C327.261 11.44 328.011 10.672 328.959 10.12C329.919 9.568 330.981 9.292 332.145 9.292C333.513 9.292 334.707 9.622 335.727 10.282C336.747 10.942 337.491 11.878 337.959 13.09H335.997C335.649 12.334 335.145 11.752 334.485 11.344C333.837 10.936 333.057 10.732 332.145 10.732C331.269 10.732 330.483 10.936 329.787 11.344C329.091 11.752 328.545 12.334 328.149 13.09C327.753 13.834 327.555 14.71 327.555 15.718C327.555 16.714 327.753 17.59 328.149 18.346C328.545 19.09 329.091 19.666 329.787 20.074C330.483 20.482 331.269 20.686 332.145 20.686C333.057 20.686 333.837 20.488 334.485 20.092C335.145 19.684 335.649 19.102 335.997 18.346H337.959C337.491 19.546 336.747 20.476 335.727 21.136C334.707 21.784 333.513 22.108 332.145 22.108C330.981 22.108 329.919 21.838 328.959 21.298C328.011 20.746 327.261 19.984 326.709 19.012C326.157 18.04 325.881 16.942 325.881 15.718ZM346.086 22.126C344.922 22.126 343.86 21.856 342.9 21.316C341.94 20.764 341.178 20.002 340.614 19.03C340.062 18.046 339.786 16.942 339.786 15.718C339.786 14.494 340.062 13.396 340.614 12.424C341.178 11.44 341.94 10.678 342.9 10.138C343.86 9.586 344.922 9.31 346.086 9.31C347.262 9.31 348.33 9.586 349.29 10.138C350.25 10.678 351.006 11.434 351.558 12.406C352.11 13.378 352.386 14.482 352.386 15.718C352.386 16.954 352.11 18.058 351.558 19.03C351.006 20.002 350.25 20.764 349.29 21.316C348.33 21.856 347.262 22.126 346.086 22.126ZM346.086 20.704C346.962 20.704 347.748 20.5 348.444 20.092C349.152 19.684 349.704 19.102 350.1 18.346C350.508 17.59 350.712 16.714 350.712 15.718C350.712 14.71 350.508 13.834 350.1 13.09C349.704 12.334 349.158 11.752 348.462 11.344C347.766 10.936 346.974 10.732 346.086 10.732C345.198 10.732 344.406 10.936 343.71 11.344C343.014 11.752 342.462 12.334 342.054 13.09C341.658 13.834 341.46 14.71 341.46 15.718C341.46 16.714 341.658 17.59 342.054 18.346C342.462 19.102 343.014 19.684 343.71 20.092C344.418 20.5 345.21 20.704 346.086 20.704ZM356.15 9.454V17.392C356.15 18.508 356.42 19.336 356.96 19.876C357.512 20.416 358.274 20.686 359.246 20.686C360.206 20.686 360.956 20.416 361.496 19.876C362.048 19.336 362.324 18.508 362.324 17.392V9.454H363.962V17.374C363.962 18.418 363.752 19.3 363.332 20.02C362.912 20.728 362.342 21.256 361.622 21.604C360.914 21.952 360.116 22.126 359.228 22.126C358.34 22.126 357.536 21.952 356.816 21.604C356.108 21.256 355.544 20.728 355.124 20.02C354.716 19.3 354.512 18.418 354.512 17.374V9.454H356.15ZM376.559 22H374.921L368.333 12.01V22H366.695V9.436H368.333L374.921 19.408V9.436H376.559V22ZM387.073 9.454V10.786H383.653V22H382.015V10.786H378.577V9.454H387.073Z" fill="white" fill-opacity="0.6"/>
<path opacity="0.4" d="M15.9988 29.331C14.9735 29.331 13.9495 28.9417 13.1668 28.1643L12.1935 27.191C11.8161 26.815 11.3108 26.607 10.7748 26.6057H9.40546C7.19212 26.6057 5.39079 24.8043 5.39079 22.591V21.2203C5.38946 20.6857 5.18146 20.1803 4.80412 19.8003L3.84679 18.8443C2.27879 17.2857 2.27212 14.7377 3.83212 13.1683L4.80546 12.1937C5.18146 11.8163 5.38946 11.311 5.39079 10.775V9.40699C5.39079 7.19232 7.19212 5.39099 9.40546 5.39099H10.7761C11.3108 5.39099 11.8148 5.18299 12.1948 4.80299L13.1535 3.84699C14.7121 2.27899 17.2588 2.27099 18.8295 3.83232L19.8028 4.80565C20.1815 5.18299 20.6855 5.39099 21.2201 5.39099H22.5908C24.8041 5.39099 26.6055 7.19232 26.6055 9.40699V10.7763C26.6068 11.311 26.8148 11.8163 27.1921 12.1963L28.1495 13.1537C28.9081 13.9083 29.3281 14.9137 29.3321 15.987C29.3348 17.0537 28.9241 18.0577 28.1761 18.8163C28.1628 18.8297 28.1508 18.8443 28.1375 18.8563L27.1908 19.803C26.8148 20.1803 26.6068 20.6857 26.6055 21.2217V22.591C26.6055 24.8043 24.8041 26.6057 22.5908 26.6057H21.2201C20.6855 26.607 20.1801 26.815 19.8015 27.1923L18.8428 28.1497C18.0615 28.9363 17.0295 29.331 15.9988 29.331Z" fill="#393939"/>
<path fill-rule="evenodd" clip-rule="evenodd" d="M13.3904 13.4012C13.1704 13.6212 12.8851 13.7399 12.5691 13.7399C12.2731 13.7399 11.9824 13.6186 11.7491 13.3999C11.5277 13.1799 11.4024 12.8786 11.4024 12.5732C11.4024 12.2826 11.5251 11.9839 11.7411 11.7532C11.8597 11.6332 12.0011 11.5426 12.1424 11.4946C12.5451 11.3106 13.0797 11.4186 13.3971 11.7519C13.5104 11.8652 13.5971 11.9892 13.6544 12.1186C13.7171 12.2572 13.7491 12.4146 13.7491 12.5732C13.7491 12.8906 13.6224 13.1852 13.3904 13.4012ZM20.254 11.7464C19.7993 11.2931 19.0593 11.2931 18.6047 11.7464L11.7513 18.5998C11.2967 19.0544 11.2967 19.7944 11.7513 20.2504C11.9727 20.4704 12.2647 20.5918 12.5767 20.5918C12.8887 20.5918 13.1807 20.4704 13.4007 20.2504L20.254 13.3971C20.7087 12.9411 20.7087 12.2024 20.254 11.7464ZM19.8744 18.3519C19.4424 18.1706 18.9304 18.2692 18.5891 18.6106C18.5184 18.6932 18.4184 18.8212 18.3504 18.9719C18.2784 19.1346 18.2691 19.3092 18.2691 19.4266C18.2691 19.5439 18.2784 19.7172 18.3504 19.8799C18.4171 20.0292 18.4971 20.1506 18.6024 20.2559C18.8437 20.4799 19.1237 20.5932 19.4357 20.5932C19.7317 20.5932 20.0224 20.4732 20.2611 20.2506C20.4731 20.0386 20.5891 19.7452 20.5891 19.4266C20.5891 19.1066 20.4731 18.8146 20.2597 18.6012C20.1424 18.4852 20.0011 18.3946 19.8744 18.3519Z" fill="#00F6FF"/>
</svg>
